{
  "accessors": [
    {
      "bufferView": 2,
      "componentType": 5126,
      "count": 1039,
      "max": [
        3.9809000492095947,
        3.8445000648498535,
        10.71030044555664
      ],
      "min": [
        -5.128399848937988,
        -4.195099830627441,
        -10.54010009765625
      ],
      "type": "VEC3"
    },
    {
      "bufferView": 2,
      "byteOffset": 12468,
      "componentType": 5126,
      "count": 1039,
      "max": [
        0.9871286153793335,
        0.9802349209785461,
        0.958306074142456
      ],
      "min": [
        -0.9867321252822876,
        -0.9710102081298828,
        -0.9579198360443115
      ],
      "type": "VEC3"
    },
    {
      "bufferView": 3,
      "componentType": 5126,
      "count": 1039,
      "max": [
        0.9970387816429138,
        0.9783350229263306,
        0.674519956111908,
        1.0
      ],
      "min": [
        -0.9942606091499329,
        -0.9788777828216553,
        -0.9982039928436279,
        -1.0
      ],
      "type": "VEC4"
    },
    {
      "bufferView": 1,
      "componentType": 5126,
      "count": 1039,
      "max": [
        0.9990000128746033,
        0.9965999722480774
      ],
      "min": [
        0.004100000020116568,
        0.0012000000569969416
      ],
      "type": "VEC2"
    },
    {
      "bufferView": 1,
      "byteOffset": 8312,
      "componentType": 5126,
      "count": 1039,
      "max": [
        0.9990000128746033,
        0.9965999722480774
      ],
      "min": [
        0.004100000020116568,
        0.0012000000569969416
      ],
      "type": "VEC2"
    },
    {
      "bufferView": 1,
      "byteOffset": 16624,
      "componentType": 5126,
      "count": 1039,
      "max": [
        0.9990000128746033,
        0.9965999722480774
      ],
      "min": [
        0.004100000020116568,
        0.0012000000569969416
      ],
      "type": "VEC2"
    },
    {
      "bufferView": 1,
      "byteOffset": 24936,
      "componentType": 5126,
      "count": 1039,
      "max": [
        0.9990000128746033,
        0.9965999722480774
      ],
      "min": [
        0.004100000020116568,
        0.0012000000569969416
      ],
      "type": "VEC2"
    },
    {
      "bufferView": 0,
      "componentType": 5125,
      "count": 4740,
      "type": "SCALAR"
    }
  ],
  "asset": {
    "extras": {
      "author": "plaggy (https://sketchfab.com/plaggy)",
      "license": "SKETCHFAB Standard (https://sketchfab.com/licenses)",
      "source": "https://sketchfab.com/3d-models/axe-88cc3cd9d16347428f5132d6d9e4901a",
      "title": "Axe"
    },
    "generator": "Sketchfab-14.80.0",
    "version": "2.0"
  },
  "bufferViews": [
    {
      "buffer": 0,
      "byteLength": 18960,
      "name": "floatBufferViews",
      "target": 34963
    },
    {
      "buffer": 0,
      "byteLength": 33248,
      "byteOffset": 18960,
      "byteStride": 8,
      "name": "floatBufferViews",
      "target": 34962
    },
    {
      "buffer": 0,
      "byteLength": 24936,
      "byteOffset": 52208,
      "byteStride": 12,
      "name": "floatBufferViews",
      "target": 34962
    },
    {
      "buffer": 0,
      "byteLength": 16624,
      "byteOffset": 77144,
      "byteStride": 16,
      "name": "floatBufferViews",
      "target": 34962
    }
  ],
  "buffers": [
    {
      "byteLength": 93768,
      "uri": "scene.bin"
    }
  ],
  "images": [
    {
      "uri": "textures/material_baseColor.png"
    },
    {
      "uri": "textures/material_metallicRoughness.png"
    },
    {
      "uri": "textures/material_normal.png"
    }
  ],
  "materials": [
    {
      "name": "material",
      "normalTexture": {
        "index": 2
      },
      "occlusionTexture": {
        "index": 1
      },
      "pbrMetallicRoughness": {
        "baseColorTexture": {
          "index": 0
        },
        "metallicRoughnessTexture": {
          "index": 1
        }
      }
    }
  ],
  "meshes": [
    {
      "name": "Axe001_Axe_0",
      "primitives": [
        {
          "attributes": {
            "NORMAL": 1,
            "POSITION": 0,
            "TANGENT": 2,
            "TEXCOORD_0": 3,
            "TEXCOORD_1": 4,
            "TEXCOORD_2": 5,
            "TEXCOORD_3": 6
          },
          "indices": 7,
          "material": 0,
          "mode": 4
        }
      ]
    }
  ],
  "nodes": [
    {
      "children": [
        1
      ],
      "matrix": [
        0.030995381996035576,
        0.0,
        0.0,
        0.0,
        0.0,
        6.882357349810148e-18,
        -0.030995381996035576,
        0.0,
        0.0,
        0.030995381996035576,
        6.882357349810148e-18,
        0.0,
        0.0,
        0.0,
        0.0,
        1.0
      ],
      "name": "Sketchfab_model"
    },
    {
      "children": [
        2
      ],
      "matrix": [
        1.0,
        0.0,
        0.0,
        0.0,
        0.0,
        0.0,
        1.0,
        0.0,
        0.0,
        -1.0,
        0.0,
        0.0,
        0.0,
        0.0,
        0.0,
        1.0
      ],
      "name": "972e0a4be7e64b2d8169f13e37bc0721.fbx"
    },
    {
      "children": [
        3
      ],
      "name": "RootNode"
    },
    {
      "children": [
        4
      ],
      "matrix": [
        1.0,
        0.0,
        0.0,
        0.0,
        0.0,
        2.220446049250313e-16,
        -1.0,
        0.0,
        0.0,
        1.0,
        2.220446049250313e-16,
        0.0,
        0.0,
        0.0,
        0.0,
        1.0
      ],
      "name": "Axe001"
    },
    {
      "mesh": 0,
      "name": "Axe001_Axe_0"
    }
  ],
  "samplers": [
    {
      "magFilter": 9729,
      "minFilter": 9987,
      "wrapS": 10497,
      "wrapT": 10497
    }
  ],
  "scene": 0,
  "scenes": [
    {
      "name": "Sketchfab_Scene",
      "nodes": [
        0
      ]
    }
  ],
  "textures": [
    {
      "sampler": 0,
      "source": 0
    },
    {
      "sampler": 0,
      "source": 1
    },
    {
      "sampler": 0,
      "source": 2
    }
  ]
}
